<svg id="symbologySVG" width="100.0" height="100.0" xmlns:symbology="http:www.symbologysvg.net" xmlns="http://www.w3.org/2000/svg" xmlns:xlink="http://www.w3.org/1999/xlink" contentScriptType="text/ecmascript" contentStyleType="text/css" preserveAspectRatio="xMidYMid meet" version="1.0" zoomAndPan="magnify">  
    <desc>Generated by SVG Symbology</desc>
	<defs/>
    <g id="root" transform="scale(0.5) ">
        <path d="M100 10 C50.3 10 10 50.3 10 100 C10 149.71 50.3 190 100 190 C149.71 190 190 149.71 190 100 C190 50.3 149.71 10 100 10  Z " fill="#ffffff" fill-opacity="1.0" id="el0ec80142" stroke="#0178af" stroke-opacity="1.0" stroke-width="20" symbology:type="Ellipse"/>
        <path d="M42.67 33.61 L29.03 48.23 C29.03 48.23 29.03 48.23 29.03 48.23 L164.34 174.4 C164.34 174.4 164.34 174.4 164.34 174.4 L177.98 159.78 C177.98 159.78 177.98 159.78 177.98 159.78 L42.67 33.61 C42.67 33.61 42.67 33.61 42.67 33.61  Z " fill="#0178af" fill-opacity="1.0" id="elc5c8a84f" stroke="#ffffff" stroke-opacity="1.0" stroke-width="0" symbology:type="Line"/>
        <path d="M93.82 60.8 C71.53 62.66 44.35 76.02 24.88 94.67 C19.61 99.71 19.61 100.17 25.63 105.73 C40.03 119.19 58.91 130.28 76.84 135.7 C91.35 140.12 109.92 140.12 124.45 135.7 C142.45 130.2 161.2 119.27 175.87 105.57 C179.15 102.49 180.59 100.74 180.59 99.91 C180.59 97.66 167.31 86.09 157.36 79.63 C139.65 68.25 123.37 62.21 106.7 60.8 C103.37 60.53 100.19 60.37 99.6 60.39 C99.06 60.39 96.45 60.62 93.82 60.8  Z M108.41 69.87 C119.02 72.67 127.85 81.59 130.67 92.21 C131.7 96.09 131.64 103.56 130.61 107.59 C127.91 118.12 118.84 127.2 108.34 129.87 C104.28 130.9 97.05 130.9 92.94 129.87 C82.35 127.13 73.35 118.17 70.63 107.57 C69.63 103.7 69.63 96.02 70.63 92.14 C72.12 86.49 74.38 82.6 78.88 78.16 C83.27 73.7 87.23 71.38 92.64 69.89 C96.45 68.87 104.57 68.87 108.41 69.87  Z M95.14 81.99 C88.99 83.95 84.63 88.37 82.73 94.67 C79.57 104.77 85.66 115.38 96.24 118.09 C100.48 119.14 104.2 118.74 108.49 116.74 C115.59 113.41 120.31 105.31 119.32 98.16 C118.67 93.25 116.42 88.56 116.42 92.02 C116.42 93.59 114.16 96.88 112.41 97.78 C108.41 99.8 104.57 99.16 101.75 96.05 C98.6 92.56 98.57 88.1 101.7 84.62 C102.74 83.48 104.06 82.45 104.69 82.19 C105.7 81.87 105.7 81.84 104.28 81.45 C101.5 80.84 98.09 81.06 95.14 81.99  Z " fill="#0178af" fill-opacity="1.0" id="el8299ee49" stroke="#ffffff" stroke-opacity="1.0" stroke-width="0" symbology:type="Symbol"/>
        <a xlink:href="https://sites.google.com/view/svgsymbology-platform/messages/channel-access" target="_blank">
            <text x="12" y="110" fill="red" font-size="34px" font-weight="bold">Prohibited !</text>
        </a>		
    </g>
</svg>
